<?xml version="1.0" standalone="no"?><!DOCTYPE svg PUBLIC "-//W3C//DTD SVG 1.1//EN" "http://www.w3.org/Graphics/SVG/1.1/DTD/svg11.dtd"><svg class="icon" width="64px" height="64.00px" viewBox="0 0 1024 1024" version="1.1" xmlns="http://www.w3.org/2000/svg"><path d="M51.5041 109.2157l367.120384 0 0 73.535488L271.792128 182.751188c-19.0403 84.352-44.8635 161.9036-77.4717 232.6405l191.632384 0 0 526.992384-69.439488 0 0-65.343488L190.367744 877.040584l0 77.599744-69.439488 0L120.928256 550.320128c-16.3523 29.952-34.048 57.1843-53.0883 81.6804-10.8964-19.0556-25.8724-40.832-44.928-65.3435 81.6476-114.3521 140.1436-242.3204 175.488-383.9037L51.504128 182.753328 51.504128 109.215744zM190.3677 480.7363l0 335.024128 126.144512 0L316.512212 480.736256 190.367744 480.736256zM422.6724 676.5117l420.656128 0 0 69.439488L422.672384 745.951188 422.672384 676.511744zM581.9515 182.7676l-24.4961 289.9681 232.783872 0 32.6717-326.8485L459.440128 145.8872 459.440128 76.447744l449.231872 0-44.928 396.288 106.191872 0c-5.4559 125.2475-10.8964 239.616-16.3359 343.0717 0 95.2955-51.7437 142.9443-155.1995 142.9443-35.3915 2.7197-80.3205 4.0796-134.7676 4.0796-2.7197-40.8484-6.8157-68.0796-12.2563-81.6804 8.1603 0 25.8724 0 53.1036 0 38.1123 2.7197 68.0479 4.0796 89.8396 4.0796 51.7284 2.7197 80.3205-23.1363 85.76-77.5997 5.4395-84.3837 8.1756-172.8799 8.1756-265.4556L479.855616 542.175244l28.5921-359.4076L581.951488 182.767644z" fill="LightSteelBlue"/></svg>